<svg xmlns="http://www.w3.org/2000/svg" xmlns:xlink="http://www.w3.org/1999/xlink" width="23.731" height="23.73" viewBox="0 0 23.731 23.73"><defs><style>.a{fill:url(#a);}</style><linearGradient id="a" x1="0.5" x2="0.5" y2="1" gradientUnits="objectBoundingBox"><stop offset="0" stop-color="#ed8770"/><stop offset="1" stop-color="#d9519d"/></linearGradient></defs><g transform="translate(4.175 11.166)"><path class="a" d="M90.773,240.908a.7.7,0,1,0,.7.7A.7.7,0,0,0,90.773,240.908Z" transform="translate(-90.078 -240.908)"/></g><g transform="translate(9.532 9.924)"><path class="a" d="M209.5,214.509a1.424,1.424,0,0,0-1.967,0,1.364,1.364,0,0,0-.35.585h0A3.333,3.333,0,0,1,205.662,217a3.273,3.273,0,0,0,3.836-.525A1.39,1.39,0,0,0,209.5,214.509Z" transform="translate(-205.662 -214.115)"/></g><g transform="translate(5.566 16.729)"><path class="a" d="M120.782,360.946a.7.7,0,1,0,.7.7A.7.7,0,0,0,120.782,360.946Z" transform="translate(-120.087 -360.946)"/></g><g transform="translate(6.957 6.993)"><path class="a" d="M150.792,150.88a.7.7,0,1,0,.7.7A.7.7,0,0,0,150.792,150.88Z" transform="translate(-150.097 -150.88)"/></g><g transform="translate(0 2.859)"><path class="a" d="M20.618,69.827a10.073,10.073,0,0,0-1.134-2.914c-1.317,1.151-3.058,2.445-4.4,2.612a2.74,2.74,0,0,1-.731,2.616,4.589,4.589,0,0,1-6.491,0c-.277-.278-.5-.481-.366-.9a.7.7,0,0,1,.551-.472,2.053,2.053,0,0,0,1.673-1.384,2.777,2.777,0,0,1,.7-1.175,2.826,2.826,0,0,1,2.613-.707c.154-1.342,1.494-3.128,2.619-4.422A10.441,10.441,0,1,0,8.137,82.308a10.853,10.853,0,0,0,2.3.249c1.784,0,3.338-.338,3.93-2.139a3.06,3.06,0,0,0-.74-3.137,1.389,1.389,0,0,1,0-1.967,1.424,1.424,0,0,1,1.967,0,3.059,3.059,0,0,0,3.137.74,2.961,2.961,0,0,0,2.022-2.376A10.623,10.623,0,0,0,20.618,69.827ZM7.652,64.475a2.086,2.086,0,1,1-2.086,2.086A2.089,2.089,0,0,1,7.652,64.475ZM2.784,70.734A2.086,2.086,0,1,1,4.87,72.82,2.089,2.089,0,0,1,2.784,70.734Zm3.477,7.65A2.086,2.086,0,1,1,8.348,76.3,2.089,2.089,0,0,1,6.261,78.384Z" transform="translate(0 -61.685)"/></g><g transform="translate(19.377 0)"><path class="a" d="M422.318.083c-.022-.022-.075-.075-.247-.075-.864,0-2.44,1.049-4.015,2.434l1.873,1.873C421.854,2.125,422.71.475,422.318.083Z" transform="translate(-418.057 -0.008)"/></g><g transform="translate(14.379 3.378)"><path class="a" d="M314.2,72.9c-.142.137-.287.273-.425.411-2.062,2.063-3.556,4.2-3.551,5.094a.425.425,0,0,0,.609.406c1.134-.19,3.3-1.92,4.909-3.534.146-.145.271-.284.409-.427Z" transform="translate(-310.224 -72.897)"/></g></svg>