<svg xmlns="http://www.w3.org/2000/svg" xmlns:xlink="http://www.w3.org/1999/xlink" width="20.257" height="18" viewBox="0 0 20.257 18"><defs><style>.a{fill:url(#a);}</style><linearGradient id="a" x1="0.5" x2="0.5" y2="1" gradientUnits="objectBoundingBox"><stop offset="0" stop-color="#ed8770"/><stop offset="1" stop-color="#d9519d"/></linearGradient></defs><g transform="translate(0 0)"><path class="a" d="M20.257,31.636a2.983,2.983,0,0,0-4.134-.753L9.248,35.7l-2.5-1.751a3.615,3.615,0,1,0-1.521,1.43L8.289,37.52,5.227,39.664a3.618,3.618,0,1,0,1.521,1.43l2.5-1.751,6.874,4.813a2.983,2.983,0,0,0,4.134-.753l-8.4-5.884ZM3.625,34.02A1.875,1.875,0,1,1,5.5,32.145,1.875,1.875,0,0,1,3.625,34.02Zm0,10.75A1.875,1.875,0,1,1,5.5,42.9,1.875,1.875,0,0,1,3.625,44.77Z" transform="translate(0 -28.52)"/></g></svg>