<svg xmlns="http://www.w3.org/2000/svg" xmlns:xlink="http://www.w3.org/1999/xlink" width="17.516" height="17.584" viewBox="0 0 17.516 17.584"><defs><style>.a{fill:url(#a);}</style><linearGradient id="a" x1="0.5" x2="0.5" y2="1" gradientUnits="objectBoundingBox"><stop offset="0" stop-color="#ed8770"/><stop offset="1" stop-color="#d9519d"/></linearGradient></defs><path class="a" d="M146.076,423.16h-2.061a.515.515,0,0,1-.515-.515v-2.129a.515.515,0,0,1,.515-.515h2.061a.515.515,0,0,1,.515.515v2.129A.515.515,0,0,1,146.076,423.16Z" transform="translate(-138.606 -405.575)"/><path class="a" d="M281.076,191.4h-2.061a.515.515,0,0,1-.515-.515V180.515a.515.515,0,0,1,.515-.515h2.061a.515.515,0,0,1,.515.515v10.372A.515.515,0,0,1,281.076,191.4Z" transform="translate(-268.969 -173.818)"/><path class="a" d="M281.076,61.03h-2.061a.515.515,0,1,1,0-1.03h2.061a.515.515,0,0,1,0,1.03Z" transform="translate(-268.969 -57.939)"/><path class="a" d="M281.076,1.03h-2.061a.515.515,0,1,1,0-1.03h2.061a.515.515,0,0,1,0,1.03Z" transform="translate(-268.969)"/><path class="a" d="M146.076,301.03h-2.061a.515.515,0,1,1,0-1.03h2.061a.515.515,0,0,1,0,1.03Z" transform="translate(-138.606 -289.697)"/><path class="a" d="M3.576,241.03H1.515a.515.515,0,1,1,0-1.03H3.576a.515.515,0,1,1,0,1.03Z" transform="translate(-1 -231.757)"/><path class="a" d="M146.076,361.03h-2.061a.515.515,0,1,1,0-1.03h2.061a.515.515,0,0,1,0,1.03Z" transform="translate(-138.606 -347.636)"/><path class="a" d="M146.076,241.03h-2.061a.515.515,0,1,1,0-1.03h2.061a.515.515,0,0,1,0,1.03Z" transform="translate(-138.606 -231.757)"/><path class="a" d="M146.076,181.03h-2.061a.515.515,0,0,1,0-1.03h2.061a.515.515,0,0,1,0,1.03Z" transform="translate(-138.606 -173.818)"/><path class="a" d="M3.576,181.03H1.515a.515.515,0,0,1,0-1.03H3.576a.515.515,0,0,1,0,1.03Z" transform="translate(-1 -173.818)"/><path class="a" d="M3.576,121.03H1.515a.515.515,0,0,1,0-1.03H3.576a.515.515,0,0,1,0,1.03Z" transform="translate(-1 -115.879)"/><path class="a" d="M423.576,181.03h-2.061a.515.515,0,0,1,0-1.03h2.061a.515.515,0,1,1,0,1.03Z" transform="translate(-406.575 -173.818)"/><path class="a" d="M423.576,121.03h-2.061a.515.515,0,0,1,0-1.03h2.061a.515.515,0,1,1,0,1.03Z" transform="translate(-406.575 -115.879)"/><path class="a" d="M281.076,121.03h-2.061a.515.515,0,1,1,0-1.03h2.061a.515.515,0,0,1,0,1.03Z" transform="translate(-268.969 -115.879)"/><path class="a" d="M3.576,307.281H1.515A.515.515,0,0,1,1,306.766v-6.251A.515.515,0,0,1,1.515,300H3.576a.515.515,0,0,1,.515.515v6.251A.515.515,0,0,1,3.576,307.281Z" transform="translate(-1 -289.697)"/><path class="a" d="M423.576,249.342h-2.061a.515.515,0,0,1-.515-.515v-8.311a.515.515,0,0,1,.515-.515h2.061a.515.515,0,0,1,.515.515v8.311A.515.515,0,0,1,423.576,249.342Z" transform="translate(-406.575 -231.757)"/></svg>