<svg xmlns="http://www.w3.org/2000/svg" xmlns:xlink="http://www.w3.org/1999/xlink" width="20.257" height="16.019" viewBox="0 0 20.257 16.019"><defs><style>.a{fill:url(#a);}</style><linearGradient id="a" x1="0.5" x2="0.5" y2="1" gradientUnits="objectBoundingBox"><stop offset="0" stop-color="#ed8770"/><stop offset="1" stop-color="#d9519d"/></linearGradient></defs><g transform="translate(0 2.117)"><path class="a" d="M16.484,87.136H9.175L7.721,85.408a.248.248,0,0,0-.2-.089h-5.9A1.638,1.638,0,0,0,0,86.957V97.584A1.638,1.638,0,0,0,1.636,99.22H16.484a1.638,1.638,0,0,0,1.636-1.636V88.772A1.638,1.638,0,0,0,16.484,87.136Z" transform="translate(0 -85.319)"/></g><g transform="translate(2.155 0)"><path class="a" d="M59.876,44.5h-7.31l-1.454-1.728a.248.248,0,0,0-.2-.089H45.019A1.636,1.636,0,0,0,43.4,44.093h5.376a.951.951,0,0,1,.731.34l1.241,1.476h6.981a2.343,2.343,0,0,1,2.339,2.339v8.317A1.636,1.636,0,0,0,61.5,54.942V46.13A1.638,1.638,0,0,0,59.876,44.5Z" transform="translate(-43.4 -42.679)"/></g></svg>