<svg xmlns="http://www.w3.org/2000/svg" xmlns:xlink="http://www.w3.org/1999/xlink" width="20.257" height="16.434" viewBox="0 0 20.257 16.434"><defs><style>.a{fill:url(#a);}</style><linearGradient id="a" x1="0.5" x2="0.5" y2="1" gradientUnits="objectBoundingBox"><stop offset="0" stop-color="#ed8770"/><stop offset="1" stop-color="#d9519d"/></linearGradient></defs><g transform="translate(0 0)"><path class="a" d="M18.634,55.053,5.373,48.314l-.538,1.058L18.1,56.111A1.772,1.772,0,0,1,19.07,57.7v1.115H0v2.967a2.971,2.971,0,0,0,2.967,2.967h17.29V57.7A2.954,2.954,0,0,0,18.634,55.053ZM3.561,62.572a.791.791,0,1,1,.791-.791A.791.791,0,0,1,3.561,62.572Z" transform="translate(0 -48.314)"/></g><g transform="translate(2.967 8.521)"><rect class="a" width="13.333" height="1.187"/></g></svg>