<svg xmlns="http://www.w3.org/2000/svg" xmlns:xlink="http://www.w3.org/1999/xlink" width="20.257" height="9.646" viewBox="0 0 20.257 9.646"><defs><style>.a{fill:url(#a);}</style><linearGradient id="a" x1="0.5" x2="0.5" y2="1" gradientUnits="objectBoundingBox"><stop offset="0" stop-color="#ed8770"/><stop offset="1" stop-color="#d9519d"/></linearGradient></defs><g transform="translate(0 0)"><path class="a" d="M70.09,236a2.09,2.09,0,1,0,2.09,2.09A2.09,2.09,0,0,0,70.09,236Zm0,3.055a.965.965,0,1,1,.965-.965A.965.965,0,0,1,70.09,239.055Z" transform="translate(-65.428 -230.534)"/><path class="a" d="M358.09,236a2.09,2.09,0,1,0,2.09,2.09A2.09,2.09,0,0,0,358.09,236Zm0,3.055a.965.965,0,1,1,.965-.965A.965.965,0,0,1,358.09,239.055Z" transform="translate(-341.852 -230.534)"/><path class="a" d="M23.027,103.739l-3.754-.685-3.2-2.652a1.773,1.773,0,0,0-1.124-.4H10.245a1.76,1.76,0,0,0-1.381.664l-2.041,2.391H5.447A1.449,1.449,0,0,0,4,104.5v1.768a1.77,1.77,0,0,0,1.768,1.768h.368a2.572,2.572,0,1,1,5.053,0h6.523a2.572,2.572,0,1,1,5.053,0h.046a1.449,1.449,0,0,0,1.447-1.447V105.17a1.439,1.439,0,0,0-1.23-1.431Zm-11.953-1.167a.482.482,0,0,1-.482.482H8.471a.241.241,0,0,1-.183-.4l1.4-1.644a.482.482,0,0,1,.367-.169h.534a.482.482,0,0,1,.482.482Zm2.412,2.251h-.643a.482.482,0,0,1,0-.965h.643a.482.482,0,0,1,0,.965Zm3.8-1.757-4.6-.011a.482.482,0,0,1-.481-.482v-1.247a.482.482,0,0,1,.482-.482h2.313a.482.482,0,0,1,.3.1l2.139,1.688a.241.241,0,0,1-.15.431Z" transform="translate(-4 -100)"/></g></svg>